<?xml version="1.0" encoding="utf-8"?>
<!-- Generator: Adobe Illustrator 26.2.1, SVG Export Plug-In . SVG Version: 6.00 Build 0)  -->
<svg version="1.1" id="Слой_1" xmlns="http://www.w3.org/2000/svg" xmlns:xlink="http://www.w3.org/1999/xlink" x="0px" y="0px"
	 viewBox="0 0 330 130" style="enable-background:new 0 0 330 130;" xml:space="preserve">
<style type="text/css">
	.st0{fill:#00B3FF;stroke:#00B3FF;stroke-miterlimit:10;}
	.st1{fill:#004DFF;stroke:#004DFF;stroke-miterlimit:10;}
	.st2{fill:#0A9DFF;stroke:#0A9DFF;stroke-miterlimit:10;}
	.st3{fill:#0D8EFF;stroke:#0D8EFF;stroke-miterlimit:10;}
</style>
<g transform="translate(0.000000,220.000000) scale(0.100000,-0.100000)">
	<path d="M200,2150v-50h-50h-50v-50v-50H50H0v-450v-450h50h50v-50v-50h50h50v-50v-50h1450h1450v50v50h50h50v50v50h50h50v450v450h-50
		h-50v50v50h-50h-50v50v50H1650H200V2150z M1900,2050v-50h-50h-50v-50v-50h-50h-50v-50v-50h-50h-50v-50v-50h-50h-50v-50v-50h-100
		h-100v-50v-50h-50h-50v-50v-50h-50h-50v-50v-50h-100H900v-100v-100h-50h-50v-50v-50H500H200v50v50h-50h-50v450v450h50h50v50v50h850
		h850V2050z"/>
</g>
<rect x="20.8" y="10" class="st0" width="100" height="70"/>
<rect x="180.8" y="10" class="st0" width="10" height="10"/>
<rect x="120.8" y="10" class="st0" width="60" height="20"/>
<rect x="120.8" y="30" class="st0" width="50" height="10"/>
<rect x="120.8" y="40" class="st0" width="40" height="10"/>
<rect x="120.8" y="50" class="st0" width="30" height="10"/>
<rect x="120.8" y="60" class="st0" width="10" height="10"/>
<rect x="20.8" y="80" class="st0" width="90" height="10"/>
<rect x="20.8" y="90" class="st0" width="71.2" height="20"/>
<rect x="20" y="110" class="st0" width="60.8" height="10"/>
<rect x="10" y="20" class="st0" width="10.8" height="90"/>
<rect x="310.1" y="30" class="st1" width="9.8" height="80"/>
<rect x="301.5" y="41.4" class="st1" width="7.9" height="78.6"/>
<rect x="291.4" y="50" class="st1" width="9.1" height="70"/>
<rect x="281.3" y="59.3" class="st1" width="9.1" height="60.7"/>
<rect x="271.7" y="59.3" class="st1" width="9.1" height="60.7"/>
<rect x="261.8" y="68" class="st1" width="9.1" height="52"/>
<rect x="252.2" y="77" class="st1" width="9.1" height="43"/>
<rect x="242.4" y="85" class="st1" width="9.1" height="35"/>
<rect x="232.7" y="93.7" class="st1" width="9.1" height="26.3"/>
<rect x="223.5" y="93.7" class="st1" width="9.1" height="26.3"/>
<rect x="214.9" y="102.2" class="st1" width="9.1" height="17.8"/>
<rect x="205" y="102.2" class="st1" width="9.1" height="17.8"/>
<rect x="82" y="100" class="st2" width="10" height="10"/>
<rect x="70.8" y="110.8" class="st2" width="10" height="9.2"/>
<rect x="80.8" y="110.8" class="st3" width="123.1" height="9.2"/>
<rect x="92.8" y="90.8" class="st3" width="111.1" height="19.2"/>
<rect x="111.7" y="80.9" class="st3" width="130.1" height="9.1"/>
<rect x="203.9" y="90.8" class="st3" width="18.6" height="11.3"/>
<rect x="223.5" y="90" class="st3" width="18.2" height="3.7"/>
<rect x="121.3" y="70" class="st3" width="130.2" height="10"/>
<rect x="242.4" y="80" class="st3" width="9.1" height="4.1"/>
<rect x="131.4" y="60" class="st3" width="129.9" height="9.1"/>
<rect x="252.2" y="69.1" class="st3" width="9.1" height="6.9"/>
<rect x="161.6" y="40.7" class="st3" width="109.4" height="26.4"/>
<rect x="151.5" y="50.6" class="st3" width="10.1" height="8.7"/>
<rect x="171.6" y="30" class="st3" width="128.9" height="19.1"/>
<rect x="269.8" y="49.1" class="st3" width="20.6" height="9.3"/>
<rect x="180.8" y="20.5" class="st3" width="128.6" height="20.2"/>
<rect x="310.1" y="20.5" class="st3" width="9.8" height="9.5"/>
<rect x="191.5" y="10" class="st3" width="117.9" height="10.5"/>
</svg>
